<svg width="30" height="30" viewBox="0 0 30 30" fill="none" xmlns="http://www.w3.org/2000/svg">
<mask id="mask0_27_28" style="mask-type:alpha" maskUnits="userSpaceOnUse" x="0" y="0" width="30" height="30">
<rect width="30" height="30" fill="#F1F1F1"/>
</mask>
<g mask="url(#mask0_27_28)">
<path d="M14.375 25C13.3333 25 12.4479 24.6354 11.7188 23.9062C10.9896 23.1771 10.625 22.2917 10.625 21.25H13.125C13.125 21.6042 13.2448 21.901 13.4844 22.1406C13.724 22.3802 14.0208 22.5 14.375 22.5C14.7292 22.5 15.026 22.3802 15.2656 22.1406C15.5052 21.901 15.625 21.6042 15.625 21.25C15.625 20.8958 15.5052 20.599 15.2656 20.3594C15.026 20.1198 14.7292 20 14.375 20H2.5V17.5H14.375C15.4167 17.5 16.3021 17.8646 17.0312 18.5938C17.7604 19.3229 18.125 20.2083 18.125 21.25C18.125 22.2917 17.7604 23.1771 17.0312 23.9062C16.3021 24.6354 15.4167 25 14.375 25ZM2.5 12.5V10H19.375C19.9167 10 20.3646 9.82292 20.7187 9.46875C21.0729 9.11458 21.25 8.66667 21.25 8.125C21.25 7.58333 21.0729 7.13542 20.7187 6.78125C20.3646 6.42708 19.9167 6.25 19.375 6.25C18.8333 6.25 18.3854 6.42708 18.0313 6.78125C17.6771 7.13542 17.5 7.58333 17.5 8.125H15C15 6.89583 15.4219 5.85938 16.2656 5.01563C17.1094 4.17188 18.1458 3.75 19.375 3.75C20.6042 3.75 21.6406 4.17188 22.4844 5.01563C23.3281 5.85938 23.75 6.89583 23.75 8.125C23.75 9.35417 23.3281 10.3906 22.4844 11.2344C21.6406 12.0781 20.6042 12.5 19.375 12.5H2.5ZM23.125 22.5V20C23.6667 20 24.1146 19.8229 24.4688 19.4687C24.8229 19.1146 25 18.6667 25 18.125C25 17.5833 24.8229 17.1354 24.4688 16.7813C24.1146 16.4271 23.6667 16.25 23.125 16.25H2.5V13.75H23.125C24.3542 13.75 25.3906 14.1719 26.2344 15.0156C27.0781 15.8594 27.5 16.8958 27.5 18.125C27.5 19.3542 27.0781 20.3906 26.2344 21.2344C25.3906 22.0781 24.3542 22.5 23.125 22.5Z" fill="#F1F1F1"/>
</g>
</svg>
