<svg width="348" height="348" viewBox="0 0 348 348" fill="none" xmlns="http://www.w3.org/2000/svg">
<path d="M116 275.5V304.5M116 188.5V217.5M232 275.5V304.5M232 188.5V217.5M174 304.5V333.5M174 217.5V246.5M290 240.41C305.243 233.734 317.726 222.018 325.352 207.227C332.979 192.437 335.285 175.473 331.885 159.184C328.484 142.894 319.583 128.27 306.676 117.767C293.768 107.263 277.641 101.52 261 101.5H242.73C238.134 83.7016 229.373 67.2503 217.171 53.5021C204.969 39.754 189.674 29.1026 172.547 22.426C155.42 15.7494 136.951 13.2388 118.663 15.101C100.376 16.9631 82.7922 23.1449 67.3626 33.1366C51.9329 43.1284 39.0987 56.644 29.9179 72.5696C20.7371 88.4951 15.4725 106.375 14.5582 124.734C13.6438 143.094 17.1058 161.408 24.6588 178.167C32.2117 194.926 43.6395 209.65 58 221.125" stroke="#F1F1F1" stroke-width="22" stroke-linecap="round" stroke-linejoin="round"/>
</svg>
