<svg width="29" height="29" viewBox="0 0 29 29" fill="none" xmlns="http://www.w3.org/2000/svg">
<mask id="mask0_26_28" style="mask-type:alpha" maskUnits="userSpaceOnUse" x="0" y="0" width="29" height="29">
<rect width="29" height="29" fill="#D9D9D9"/>
</mask>
<g mask="url(#mask0_26_28)">
<path d="M14.5 25.9791C11.8215 25.9791 9.54078 25.0528 7.65779 23.2C5.77481 21.3472 4.83331 19.0916 4.83331 16.4333C4.83331 15.1646 5.08001 13.9512 5.57342 12.7932C6.06682 11.6352 6.76665 10.6132 7.6729 9.72706L14.5 3.02081L21.3271 9.72706C22.2333 10.6132 22.9331 11.6352 23.4265 12.7932C23.9199 13.9512 24.1666 15.1646 24.1666 16.4333C24.1666 19.0916 23.2252 21.3472 21.3422 23.2C19.4592 25.0528 17.1785 25.9791 14.5 25.9791ZM14.5 23.5625C16.5139 23.5625 18.2257 22.8727 19.6354 21.4932C21.0451 20.1137 21.75 18.4271 21.75 16.4333C21.75 15.4868 21.5687 14.5856 21.2062 13.7297C20.8437 12.8738 20.3201 12.1236 19.6354 11.4791L14.5 6.40415L9.36456 11.4791C8.67984 12.1236 8.15623 12.8738 7.79373 13.7297C7.43123 14.5856 7.24998 15.4868 7.24998 16.4333C7.24998 18.4271 7.95484 20.1137 9.36456 21.4932C10.7743 22.8727 12.4861 23.5625 14.5 23.5625Z" fill="white"/>
</g>
</svg>
