<svg width="328" height="328" viewBox="0 0 328 328" fill="none" xmlns="http://www.w3.org/2000/svg">
<path d="M164 287C129.833 287 100.792 275.042 76.875 251.125C52.9583 227.208 41 198.167 41 164C41 129.833 52.9583 100.792 76.875 76.875C100.792 52.9583 129.833 41 164 41C167.189 41 170.321 41.1139 173.396 41.3417C176.471 41.5694 179.489 41.9111 182.45 42.3667C173.111 48.9722 165.651 57.5708 160.071 68.1625C154.49 78.7542 151.7 90.2 151.7 102.5C151.7 123 158.875 140.425 173.225 154.775C187.575 169.125 205 176.3 225.5 176.3C238.028 176.3 249.531 173.51 260.008 167.929C270.486 162.349 279.028 154.889 285.633 145.55C286.089 148.511 286.431 151.529 286.658 154.604C286.886 157.679 287 160.811 287 164C287 198.167 275.042 227.208 251.125 251.125C227.208 275.042 198.167 287 164 287ZM164 259.667C184.044 259.667 202.039 254.143 217.983 243.096C233.928 232.049 245.544 217.642 252.833 199.875C248.278 201.014 243.722 201.925 239.167 202.608C234.611 203.292 230.056 203.633 225.5 203.633C197.483 203.633 173.624 193.782 153.921 174.079C134.218 154.376 124.367 130.517 124.367 102.5C124.367 97.9444 124.708 93.3889 125.392 88.8333C126.075 84.2778 126.986 79.7222 128.125 75.1667C110.358 82.4556 95.9514 94.0722 84.9042 110.017C73.8569 125.961 68.3333 143.956 68.3333 164C68.3333 190.422 77.6722 212.972 96.35 231.65C115.028 250.328 137.578 259.667 164 259.667Z" fill="#F1F1F1"/>
</svg>
