<svg width="358" height="358" viewBox="0 0 358 358" fill="none" xmlns="http://www.w3.org/2000/svg">
<path d="M238.667 193.917V313.25M119.333 193.917V313.25M179 223.75V343.083M298.333 247.318C314.014 240.451 326.855 228.397 334.701 213.182C342.547 197.967 344.92 180.516 341.421 163.758C337.923 147 328.766 131.956 315.488 121.151C302.21 110.345 285.619 104.437 268.5 104.417H249.705C244.977 86.1068 235.964 69.1827 223.411 55.0395C210.858 40.8963 195.124 29.9389 177.505 23.0705C159.886 16.202 140.886 13.6192 122.073 15.5349C103.26 17.4506 85.1712 23.81 69.2981 34.0888C53.4251 44.3677 40.2221 58.2717 30.7775 74.6549C21.3328 91.0381 15.917 109.431 14.9764 128.318C14.0357 147.206 17.5972 166.046 25.3672 183.286C33.1372 200.527 44.8933 215.674 59.6665 227.479" stroke="#F1F1F1" stroke-width="18" stroke-linecap="round" stroke-linejoin="round"/>
</svg>
