<svg width="348" height="348" viewBox="0 0 348 348" fill="none" xmlns="http://www.w3.org/2000/svg">
<path d="M290 254.91C305.244 248.234 317.726 236.518 325.353 221.727C332.979 206.937 335.286 189.973 331.885 173.684C328.484 157.394 319.583 142.77 306.676 132.267C293.769 121.763 277.641 116.02 261 116H242.73C238.134 98.2016 229.374 81.7503 217.171 68.0021C204.969 54.254 189.674 43.6026 172.547 36.926C155.42 30.2494 136.952 27.7388 118.664 29.601C100.376 31.4631 82.7927 37.6449 67.3631 47.6366C51.9334 57.6284 39.0992 71.144 29.9184 87.0696C20.7376 102.995 15.473 120.875 14.5587 139.234C13.6443 157.594 17.1063 175.908 24.6592 192.667C32.2122 209.426 43.64 224.15 58.0005 235.625M116 232H116.145M116 290H116.145M174 261H174.145M174 319H174.145M232 232H232.145M232 290H232.145" stroke="#F1F1F1" stroke-width="23" stroke-linecap="round" stroke-linejoin="round"/>
</svg>
