<svg width="348" height="348" viewBox="0 0 348 348" fill="none" xmlns="http://www.w3.org/2000/svg">
<path d="M275.5 245.05C293.12 241.472 308.782 231.475 319.445 216.999C330.108 202.524 335.013 184.602 333.206 166.714C331.399 148.826 323.01 132.247 309.667 120.196C296.324 108.145 278.979 101.482 261 101.5H242.73C237.926 82.9011 228.578 65.7864 215.527 51.6923C202.475 37.5982 186.127 26.9661 167.951 20.7504C149.775 14.5347 130.34 12.9301 111.391 16.0806C92.4418 19.2311 74.5716 27.0381 59.3849 38.8007C44.1981 50.5633 32.1701 65.9132 24.3808 83.4723C16.5915 101.031 13.2848 120.25 14.7574 139.403C16.2301 158.556 22.4361 177.043 32.8182 193.205C43.2003 209.367 57.4335 222.697 74.24 232M188.5 159.5L130.5 246.5H217.5L159.5 333.5" stroke="#F1F1F1" stroke-width="26" stroke-linecap="round" stroke-linejoin="round"/>
</svg>
